STARTFONT 2.1
COMMENT i love anya
FONT VHS_SMOOTH
SIZE 28 96 96
FONTBOUNDINGBOX 20 27 0 0
STARTPROPERTIES 6
COPYRIGHT "mriaowwww"
RESOLUTION_X 96
RESOLUTION_Y 96
FONT_ASCENT 28
FONT_DESCENT 0
DEFAULT_CHAR 0
ENDPROPERTIES
CHARS 10
STARTCHAR 048
ENCODING 48
SWIDTH 1440 0
DWIDTH 20 0
BBX 18 28 0 0
BITMAP
07F800
1FFE00
3FFF00
7FFF80
7F3F80
FC0FC0
F807C0
F807C0
F007C0
F00FC0
F01FC0
F03FC0
F07BC0
F0F3C0
F1E3C0
F3C3C0
F783C0
FF03C0
FE03C0
FC03C0
F807C0
F807C0
FC0FC0
7F3F80
7FFF80
3FFF00
1FFE00
07F800
ENDCHAR
STARTCHAR 049
ENCODING 49
SWIDTH 1008 0
DWIDTH 14 0
BBX 12 28 0 0
BITMAP
0F00
1F00
3F00
7F00
FF00
FF00
EF00
CF00
0F00
0F00
0F00
0F00
0F00
0F00
0F00
0F00
0F00
0F00
0F00
0F00
0F00
0F00
0F00
0F00
FFF0
FFF0
FFF0
FFF0
ENDCHAR
STARTCHAR 050
ENCODING 50
SWIDTH 1296 0
DWIDTH 18 0
BBX 16 28 0 0
BITMAP
07E0
1FF8
3FFC
7FFE
7C3E
F81F
F00F
F00F
000F
000F
001F
003E
007C
00F8
01F0
03E0
07C0
0F80
1F00
3E00
7C00
F800
F000
F000
FFFF
FFFF
FFFF
FFFF
ENDCHAR
STARTCHAR 051
ENCODING 51
SWIDTH 1296 0
DWIDTH 18 0
BBX 16 28 0 0
BITMAP
07E0
1FF8
3FFC
7FFE
7C3E
F81F
F00F
F00F
000F
000F
001F
003E
00FE
00FC
00FC
00FE
003E
001F
000F
000F
F00F
F00F
F81F
7C3E
7FFE
3FFC
1FF8
07E0
ENDCHAR
STARTCHAR 052
ENCODING 52
SWIDTH 1224 0
DWIDTH 17 0
BBX 16 28 0 0
BITMAP
F00F
F00F
F00F
F00F
F00F
F00F
F00F
F00F
F00F
F00F
F00F
F00F
FFFF
FFFF
FFFF
FFFF
000F
000F
000F
000F
000F
000F
000F
000F
000F
000F
000F
000F
ENDCHAR
STARTCHAR 053
ENCODING 53
SWIDTH 1224 0
DWIDTH 17 0
BBX 16 28 0 0
BITMAP
FFFF
FFFF
FFFF
FFFF
F000
F000
F000
F000
F000
F000
FFE0
FFF8
FFFC
FFFE
007E
001F
001F
000F
000F
000F
F00F
F00F
F81F
7C3E
7FFE
3FFC
1FF8
07E0
ENDCHAR
STARTCHAR 054
ENCODING 54
SWIDTH 1224 0
DWIDTH 17 0
BBX 16 28 0 0
BITMAP
07FC
1FFC
3FFC
7FFC
7E00
F800
F800
F000
F000
F000
F7E0
FFF8
FFFC
FFFE
FC3E
F81F
F00F
F00F
F00F
F00F
F00F
F00F
F81F
7C3E
7FFE
3FFC
1FF8
07E0
ENDCHAR
STARTCHAR 055
ENCODING 55
SWIDTH 1224 0
DWIDTH 17 0
BBX 16 28 0 0
BITMAP
FFFF
FFFF
FFFF
FFFF
000F
000F
001F
003E
007C
00F8
01F0
03E0
03C0
03C0
03C0
03C0
03C0
03C0
03C0
03C0
03C0
03C0
03C0
03C0
03C0
03C0
03C0
03C0
ENDCHAR
STARTCHAR 056
ENCODING 56
SWIDTH 1296 0
DWIDTH 18 0
BBX 16 28 0 0
BITMAP
07E0
1FF8
3FFC
7FFE
7C3E
F81F
F00F
F00F
F00F
F00F
F81F
7C3E
7FFE
3FFC
3FFC
7FFE
7C3E
F81F
F00F
F00F
F00F
F00F
F81F
7C3E
7FFE
3FFC
1FF8
07E0
ENDCHAR
STARTCHAR 057
ENCODING 57
SWIDTH 1296 0
DWIDTH 18 0
BBX 16 28 0 0
BITMAP
07E0
1FF8
3FFC
7FFE
7C3E
F81F
F00F
F00F
F00F
F00F
F00F
F00F
F81F
7C3F
7FFF
3FFF
1FFF
07CF
000F
000F
000F
001F
001F
007E
3FFE
3FFC
3FF8
3FE0
ENDCHAR
ENDFONT
